<svg width="20" height="20" viewBox="0 0 20 20" fill="#090f1a" xmlns="http://www.w3.org/2000/svg">
<path fill-rule="evenodd" clip-rule="evenodd" d="M14.0185 3.5178C14.0185 9.31679 9.31753 14.0178 3.51854 14.0178C3.09267 14.0178 2.67232 13.9924 2.25903 13.9429C3.75257 16.3879 6.44646 18.0183 9.51854 18.0183C14.213 18.0183 18.0185 14.2127 18.0185 9.51829C18.0185 6.44646 16.3884 3.75276 13.9437 2.25915C13.9931 2.67217 14.0185 3.09223 14.0185 3.5178ZM12.2866 1.47875C12.4383 2.13391 12.5185 2.81649 12.5185 3.5178C12.5185 8.48837 8.4891 12.5178 3.51854 12.5178C2.81697 12.5178 2.13415 12.4375 1.47877 12.2857L1.47361 12.2845C1.41727 12.2714 1.36114 12.2578 1.30522 12.2436C1.09862 12.1914 0.894862 12.132 0.694231 12.0657C0.301493 11.936 -0.105434 12.2757 0.0247522 12.6683C0.10004 12.8953 0.183244 13.1187 0.274036 13.3382C0.299635 13.4001 0.325837 13.4616 0.352636 13.5229C0.354124 13.5263 0.355616 13.5297 0.357108 13.5331C1.90359 17.057 5.42363 19.5183 9.51854 19.5183C15.0414 19.5183 19.5185 15.0411 19.5185 9.51829C19.5185 5.42367 17.0576 1.90384 13.5341 0.357191C13.5307 0.355699 13.5273 0.354206 13.5239 0.352718C13.4626 0.325915 13.4011 0.299707 13.3392 0.274103C13.1197 0.183293 12.8963 0.100071 12.6693 0.0247645C12.2767 -0.105454 11.937 0.301445 12.0667 0.694194C12.1329 0.89483 12.1923 1.09859 12.2445 1.30519C12.2587 1.36112 12.2723 1.41725 12.2854 1.47359L12.2866 1.47875Z"/>
</svg>
